<svg xmlns="http://www.w3.org/2000/svg" xmlns:xlink="http://www.w3.org/1999/xlink" contentStyleType="text/css" data-diagram-type="TIMING" height="336px" preserveAspectRatio="none" style="width:894px;height:336px;background:#FFFFFF;" version="1.1" viewBox="0 0 894 336" width="894px" zoomAndPan="magnify"><defs/><g><line style="stroke:#333333;stroke-width:0.5;" x1="10" x2="10" y1="10" y2="324.4219"/><line style="stroke:#333333;stroke-width:0.5;" x1="870" x2="870" y1="10" y2="324.4219"/><rect fill="#FFD700" height="314.4219" style="stroke:none;stroke-width:1;" width="275" x="490" y="10"/><rect fill="#EEEEEE" height="314.4219" style="stroke:none;stroke-width:1;" width="225" x="265" y="10"/><line style="stroke:#333333;stroke-width:0.5;stroke-dasharray:3,5;" x1="15" x2="15" y1="10" y2="324.4219"/><line style="stroke:#333333;stroke-width:0.5;stroke-dasharray:3,5;" x1="65" x2="65" y1="10" y2="324.4219"/><line style="stroke:#333333;stroke-width:0.5;stroke-dasharray:3,5;" x1="115" x2="115" y1="10" y2="324.4219"/><line style="stroke:#333333;stroke-width:0.5;stroke-dasharray:3,5;" x1="165" x2="165" y1="10" y2="324.4219"/><line style="stroke:#333333;stroke-width:0.5;stroke-dasharray:3,5;" x1="215" x2="215" y1="10" y2="324.4219"/><line style="stroke:#333333;stroke-width:0.5;stroke-dasharray:3,5;" x1="265" x2="265" y1="10" y2="324.4219"/><line style="stroke:#333333;stroke-width:0.5;stroke-dasharray:3,5;" x1="315" x2="315" y1="10" y2="324.4219"/><line style="stroke:#333333;stroke-width:0.5;stroke-dasharray:3,5;" x1="365" x2="365" y1="10" y2="324.4219"/><line style="stroke:#333333;stroke-width:0.5;stroke-dasharray:3,5;" x1="415" x2="415" y1="10" y2="324.4219"/><line style="stroke:#333333;stroke-width:0.5;stroke-dasharray:3,5;" x1="465" x2="465" y1="10" y2="324.4219"/><line style="stroke:#333333;stroke-width:0.5;stroke-dasharray:3,5;" x1="515" x2="515" y1="10" y2="324.4219"/><line style="stroke:#333333;stroke-width:0.5;stroke-dasharray:3,5;" x1="565" x2="565" y1="10" y2="324.4219"/><line style="stroke:#333333;stroke-width:0.5;stroke-dasharray:3,5;" x1="615" x2="615" y1="10" y2="324.4219"/><line style="stroke:#333333;stroke-width:0.5;stroke-dasharray:3,5;" x1="665" x2="665" y1="10" y2="324.4219"/><line style="stroke:#333333;stroke-width:0.5;stroke-dasharray:3,5;" x1="715" x2="715" y1="10" y2="324.4219"/><line style="stroke:#333333;stroke-width:0.5;stroke-dasharray:3,5;" x1="765" x2="765" y1="10" y2="324.4219"/><line style="stroke:#333333;stroke-width:0.5;stroke-dasharray:3,5;" x1="815" x2="815" y1="10" y2="324.4219"/><line style="stroke:#333333;stroke-width:0.5;stroke-dasharray:3,5;" x1="865" x2="865" y1="10" y2="324.4219"/><line style="stroke:#333333;stroke-width:0.5;" x1="10" x2="870" y1="10" y2="10"/><text fill="#333333" font-family="sans-serif" font-size="14" font-weight="bold" lengthAdjust="spacing" textLength="77.7725" x="15" y="22.9951">FreeRTOS</text><line style="stroke:#333333;stroke-width:0.5;" x1="10" x2="93.7725" y1="27.2969" y2="27.2969"/><line style="stroke:#333333;stroke-width:0.5;" x1="93.7725" x2="103.7725" y1="27.2969" y2="10"/><polygon fill="#E2E2F0" points="27,46.2656,253,46.2656,265,58.2656,253,70.2656,27,70.2656,15,58.2656" style="stroke:#006400;stroke-width:1.5;"/><polygon fill="#E2E2F0" points="777,46.2656,865,46.2656,865,70.2656,777,70.2656,765,58.2656" style="stroke:#E2E2F0;stroke-width:1.5;"/><path d="M865,46.2656 L777,46.2656 L765,58.2656 L777,70.2656 L865,70.2656" fill="#E2E2F0" style="stroke:#006400;stroke-width:1.5;"/><text fill="#333333" font-family="sans-serif" font-size="12" font-weight="bold" lengthAdjust="spacing" textLength="67.7402" x="106.1299" y="62.4199">Scheduler</text><text fill="#333333" font-family="sans-serif" font-size="12" font-weight="bold" lengthAdjust="spacing" textLength="67.7402" x="777" y="62.4199">Scheduler</text><line style="stroke:#333333;stroke-width:0.5;" x1="10" x2="870" y1="80.2656" y2="80.2656"/><text fill="#333333" font-family="sans-serif" font-size="14" font-weight="bold" lengthAdjust="spacing" textLength="28.7314" x="15" y="93.2607">PTL</text><line style="stroke:#333333;stroke-width:0.5;" x1="10" x2="44.7314" y1="97.5625" y2="97.5625"/><line style="stroke:#333333;stroke-width:0.5;" x1="44.7314" x2="54.7314" y1="97.5625" y2="80.2656"/><polygon fill="#E2E2F0" points="277,102.5625,403,102.5625,415,114.5625,403,126.5625,277,126.5625,265,114.5625" style="stroke:#006400;stroke-width:1.5;"/><text fill="#333333" font-family="sans-serif" font-size="12" font-weight="bold" lengthAdjust="spacing" textLength="24.627" x="327.6865" y="118.7168">PTL</text><line style="stroke:#333333;stroke-width:0.5;" x1="10" x2="870" y1="136.5625" y2="136.5625"/><text fill="#333333" font-family="sans-serif" font-size="14" font-weight="bold" lengthAdjust="spacing" textLength="44.9736" x="15" y="149.5576">Tasks</text><line style="stroke:#333333;stroke-width:0.5;" x1="10" x2="60.9736" y1="153.8594" y2="153.8594"/><line style="stroke:#333333;stroke-width:0.5;" x1="60.9736" x2="70.9736" y1="153.8594" y2="136.5625"/><polygon fill="#E2E2F0" points="427,177.8281,428,177.8281,440,189.8281,428,201.8281,427,201.8281,415,189.8281" style="stroke:#006400;stroke-width:1.5;"/><polygon fill="#E2E2F0" points="452,177.8281,453,177.8281,465,189.8281,453,201.8281,452,201.8281,440,189.8281" style="stroke:#006400;stroke-width:1.5;"/><polygon fill="#E2E2F0" points="477,177.8281,478,177.8281,490,189.8281,478,201.8281,477,201.8281,465,189.8281" style="stroke:#006400;stroke-width:1.5;"/><text fill="#333333" font-family="sans-serif" font-size="12" font-weight="bold" lengthAdjust="spacing" textLength="9.9609" x="422.5195" y="193.9824">D</text><text fill="#333333" font-family="sans-serif" font-size="12" font-weight="bold" lengthAdjust="spacing" textLength="9.9609" x="447.5195" y="193.9824">D</text><text fill="#333333" font-family="sans-serif" font-size="12" font-weight="bold" lengthAdjust="spacing" textLength="9.9609" x="472.5195" y="193.9824">D</text><line style="stroke:#8B0000;stroke-width:1.5;" x1="416" x2="489" y1="168.3438" y2="168.3438"/><polygon fill="#8B0000" points="424,172.3438,424,164.3438,416,168.3438" style="stroke:#8B0000;stroke-width:1;"/><polygon fill="#8B0000" points="481,172.3438,481,164.3438,489,168.3438" style="stroke:#8B0000;stroke-width:1;"/><text fill="#8B0000" font-family="sans-serif" font-size="12" lengthAdjust="spacing" textLength="59.9297" x="422.5352" y="160.5137">Negligible</text><line style="stroke:#333333;stroke-width:0.5;" x1="10" x2="870" y1="211.8281" y2="211.8281"/><text fill="#333333" font-family="sans-serif" font-size="14" font-weight="bold" lengthAdjust="spacing" textLength="87.8145" x="15" y="224.8232">Probe Task</text><line style="stroke:#333333;stroke-width:0.5;" x1="10" x2="103.8145" y1="229.125" y2="229.125"/><line style="stroke:#333333;stroke-width:0.5;" x1="103.8145" x2="113.8145" y1="229.125" y2="211.8281"/><polygon fill="#E2E2F0" points="502,234.125,753,234.125,765,246.125,753,258.125,502,258.125,490,246.125" style="stroke:#006400;stroke-width:1.5;"/><text fill="#333333" font-family="sans-serif" font-size="12" font-weight="bold" lengthAdjust="spacing" textLength="71.0918" x="591.9541" y="250.2793">ProbeTask</text><line style="stroke:#333333;stroke-width:0.5;" x1="10" x2="870" y1="268.125" y2="268.125"/><text fill="#333333" font-family="sans-serif" font-size="14" font-weight="bold" lengthAdjust="spacing" textLength="133.8955" x="15" y="281.1201">User Perspective</text><line style="stroke:#333333;stroke-width:0.5;" x1="10" x2="149.8955" y1="285.4219" y2="285.4219"/><line style="stroke:#333333;stroke-width:0.5;" x1="149.8955" x2="159.8955" y1="285.4219" y2="268.125"/><rect fill="#FF0000" height="24" style="stroke:#333333;stroke-width:0.5;" width="250" x="15" y="290.4219"/><rect fill="#ADD8E6" height="24" style="stroke:#333333;stroke-width:0.5;" width="225" x="265" y="290.4219"/><rect fill="#98FB98" height="24" style="stroke:#333333;stroke-width:0.5;" width="275" x="490" y="290.4219"/><rect fill="#FF0000" height="24" style="stroke:#FF0000;stroke-width:0.5;" width="100" x="765" y="290.4219"/><path d="M865,290.4219 L765,290.4219 L765,314.4219 L865,314.4219" fill="#FF0000" style="stroke:#333333;stroke-width:0.5;"/><text fill="#333333" font-family="sans-serif" font-size="14" font-weight="bold" lengthAdjust="spacing" textLength="105.3418" x="87.3291" y="307.2686">OS_Overhead</text><text fill="#333333" font-family="sans-serif" font-size="14" font-weight="bold" lengthAdjust="spacing" textLength="112.0889" x="321.4556" y="307.2686">PTL_Overhead</text><text fill="#333333" font-family="sans-serif" font-size="14" font-weight="bold" lengthAdjust="spacing" textLength="80.9512" x="587.0244" y="307.2686">Usr_Space</text><text fill="#333333" font-family="sans-serif" font-size="14" font-weight="bold" lengthAdjust="spacing" textLength="105.3418" x="777" y="307.2686">OS_Overhead</text><line style="stroke:#333333;stroke-width:2;stroke-dasharray:4,4;" x1="490" x2="490" y1="10" y2="324.4219"/><line style="stroke:#333333;stroke-width:2;stroke-dasharray:4,4;" x1="765" x2="765" y1="10" y2="324.4219"/><text fill="#000000" font-family="sans-serif" font-size="12" lengthAdjust="spacing" textLength="101.4316" x="493" y="23.1387">REMAINING TIME</text><line style="stroke:#333333;stroke-width:2;stroke-dasharray:4,4;" x1="265" x2="265" y1="10" y2="324.4219"/><line style="stroke:#333333;stroke-width:2;stroke-dasharray:4,4;" x1="490" x2="490" y1="10" y2="324.4219"/><!--SRC=[PP3HQy8m4CRVxwyuxBCo7phS62F2kY7CManzbhGvch2ibQJAOEn_NvBgjEmfoNVVzxkxA2q9U_r9K_6b7K3TjRLsX9DNIxGjDto2mc46B8Cxr0vvhKWU3Lb8m_DRQIcf_O5vEgvUGKNv7XbBOCiXv1LOZD9NTodSXul-4bWvs5vWCKk7oyFvc8sximK-JP-H1VqHSsgCRdHbw7OCsrM40H_f1R3YWecbK3blSHtBKjsBjZ4-ltDaiI3h3bxJ9ueK3emF_xBX-ys9h28XCR4a_pQzaVrGgg_CaIwDTyxk-K7KXCb166hybxVd6VxnGFbq9618znrwOz9qHlgDjzbwkSfN-HkMgtLsOut6u0S0Dh__1G00]--></g></svg>